<?xml version="1.0" encoding="utf-8"?>
<!-- Generator: Adobe Illustrator 16.0.0, SVG Export Plug-In . SVG Version: 6.00 Build 0)  -->
<!DOCTYPE svg PUBLIC "-//W3C//DTD SVG 1.1//EN" "http://www.w3.org/Graphics/SVG/1.1/DTD/svg11.dtd">
<svg version="1.1" class="svg" id="Layer_1" xmlns="http://www.w3.org/2000/svg" xmlns:xlink="http://www.w3.org/1999/xlink" x="0px" y="0px"
	 width="118px" height="120.554px" viewBox="0 0 118 120.554" enable-background="new 0 0 118 120.554" xml:space="preserve">
<g>
	<g>
		<path fill="#0079C1" d="M65.472,27.544c-1.766,3.625-6.136,5.132-9.759,3.367c-3.626-1.766-5.134-6.134-3.372-9.759
			c1.768-3.625,6.137-5.135,9.763-3.369C65.729,19.548,67.235,23.918,65.472,27.544z"/>
		<circle fill="#0079C1" cx="74.174" cy="31.78" r="7.302"/>
		<circle fill="#0079C1" cx="89.81" cy="39.396" r="7.3"/>
		<circle fill="#0079C1" cx="105.074" cy="46.827" r="7.3"/>
		<circle fill="#0079C1" cx="51.446" cy="39.79" r="7.301"/>
		<circle fill="#0079C1" cx="66.711" cy="47.223" r="7.3"/>
		<circle fill="#0079C1" cx="82.347" cy="54.836" r="7.301"/>
		<circle fill="#0079C1" cx="97.613" cy="62.269" r="7.301"/>
		<circle fill="#0079C1" cx="43.765" cy="55.506" r="7.301"/>
		<path fill="#0079C1" d="M65.593,66.135c-1.764,3.624-6.134,5.134-9.759,3.367c-3.625-1.765-5.134-6.133-3.37-9.76
			c1.767-3.624,6.136-5.131,9.761-3.365C65.851,58.141,67.357,62.51,65.593,66.135z"/>
		<path fill="#0079C1" d="M81.23,73.75c-1.765,3.624-6.135,5.131-9.76,3.369c-3.625-1.768-5.132-6.137-3.368-9.762
			c1.764-3.625,6.135-5.131,9.761-3.367C81.487,65.755,82.995,70.124,81.23,73.75z"/>
		<circle fill="#0079C1" cx="89.932" cy="77.986" r="7.301"/>
		<circle fill="#0079C1" cx="36.303" cy="70.948" r="7.301"/>
		<circle fill="#0079C1" cx="51.568" cy="78.381" r="7.301"/>
		<circle fill="#0079C1" cx="67.203" cy="85.995" r="7.301"/>
		<circle fill="#0079C1" cx="82.468" cy="93.427" r="7.3"/>
	</g>
	<g>
		<path fill="#FFDD00" d="M49.435,19.736c-1.762,3.625-6.133,5.13-9.759,3.366c-3.625-1.764-5.132-6.134-3.368-9.76
			c1.766-3.622,6.135-5.132,9.759-3.367C49.692,11.741,51.199,16.111,49.435,19.736z"/>
		<circle fill="#FFDD00" cx="35.409" cy="31.981" r="7.3"/>
		<circle fill="#FFDD00" cx="27.729" cy="47.698" r="7.301"/>
		<path fill="#FFDD00" d="M26.829,66.337c-1.764,3.624-6.134,5.131-9.757,3.366c-3.627-1.765-5.134-6.133-3.369-9.761
			c1.765-3.623,6.134-5.132,9.758-3.367C27.087,58.341,28.595,62.71,26.829,66.337z"/>
		<circle fill="#FFDD00" cx="12.735" cy="78.548" r="7.301"/>
		<circle fill="#FFDD00" cx="28.771" cy="86.357" r="7.299"/>
		<circle fill="#FFDD00" cx="44.036" cy="93.791" r="7.302"/>
		<circle fill="#FFDD00" cx="59.673" cy="101.403" r="7.299"/>
		<circle fill="#FFDD00" cx="74.938" cy="108.836" r="7.3"/>
	</g>
</g>
</svg>
