<svg xmlns="http://www.w3.org/2000/svg" width="300" height="300" viewBox="0 0 300 300"><style>.a{fill:#F5F5F5;}</style><rect width="300" height="300" fill="#1A1A1A"/><path d="M96.6 126.6l-2.8 12.7h-3l-3.6-24.5h1.8l3.2 22.2h0.3l2.8-12.7h2.7l2.8 12.7h0.3l3.2-22.2h1.8l-3.6 24.5H99.6l-2.7-12.7H96.6z" class="a"/><path d="M109 126.5c0-0.7 0.1-1.4 0.4-2 0.2-0.6 0.6-1.1 1-1.6 0.4-0.4 0.9-0.8 1.5-1 0.6-0.3 1.2-0.4 1.9-0.4h1.2c0.7 0 1.3 0.1 1.9 0.4 0.6 0.3 1.1 0.6 1.5 1.1 0.4 0.4 0.8 1 1 1.6 0.2 0.6 0.4 1.3 0.4 2v1.2c0 1-0.2 1.8-0.5 2.5s-0.8 1.2-1.4 1.6c-0.6 0.4-1.3 0.7-2.1 0.9 -0.8 0.2-1.7 0.3-2.6 0.3 -0.4 0-0.7 0-1.1 0 -0.4 0-0.8-0.1-1.2-0.1v2.1c0.2 0.9 0.6 1.7 1.3 2.2 0.7 0.5 1.5 0.8 2.4 0.8 0.1 0 0.4-0.1 0.9-0.2 0.5-0.1 1-0.2 1.6-0.3 0.7-0.1 1.4-0.3 2.2-0.5l0.4 1.9c-0.9 0.2-1.6 0.3-2.3 0.5 -0.6 0.1-1.2 0.2-1.7 0.3s-0.9 0.1-1 0.1c-0.7 0-1.5-0.1-2.1-0.4 -0.7-0.3-1.3-0.6-1.8-1.1 -0.5-0.5-0.9-1.1-1.2-1.7 -0.3-0.7-0.4-1.4-0.4-2.2V126.5zM115 130.9h0.1c0.4 0 0.8-0.1 1.2-0.3 0.4-0.2 0.7-0.4 0.9-0.7 0.3-0.3 0.5-0.6 0.6-1 0.2-0.4 0.2-0.8 0.2-1.2v-1.5c0-0.6-0.1-1-0.3-1.4 -0.2-0.4-0.5-0.7-0.8-0.9 -0.3-0.2-0.7-0.4-1.2-0.5s-0.9-0.2-1.4-0.2c-0.4 0-0.9 0.1-1.3 0.2 -0.4 0.1-0.8 0.3-1.1 0.6s-0.5 0.6-0.7 0.9c-0.2 0.4-0.3 0.8-0.3 1.3v4.6L115 130.9z" class="a"/><path d="M125 119.8c-0.5 0.8-1.2 1.4-2.1 1.8l-0.6-2.1c0.4-0.2 0.7-0.5 1.1-0.9 0.3-0.4 0.5-1.1 0.5-1.9v-1.8h2v1.8C125.9 118 125.6 119 125 119.8z" class="a"/><path d="M138.4 122.9l-1 1.5c-0.4-0.2-0.7-0.4-1-0.5 -0.3-0.1-0.5-0.2-0.7-0.3 -0.2-0.1-0.4-0.1-0.6-0.1 -0.2 0-0.4 0-0.6 0 -0.3 0-0.8 0.1-1.4 0.3 -0.6 0.2-1.2 0.6-1.8 1.1v14.5h-1.7v-15.5l-0.9-0.9 1.2-1.3 1.2 1.2c0.7-0.6 1.3-1 1.9-1.1 0.6-0.2 1.1-0.2 1.6-0.2 0.5 0 1 0.1 1.5 0.3C136.6 122 137.4 122.3 138.4 122.9z" class="a"/><path d="M140.4 126.5c0-0.7 0.1-1.4 0.4-2 0.2-0.6 0.6-1.1 1-1.6 0.4-0.4 0.9-0.8 1.5-1 0.6-0.3 1.2-0.4 1.9-0.4h1.2c0.7 0 1.3 0.1 1.9 0.4 0.6 0.3 1.1 0.6 1.5 1.1 0.4 0.4 0.8 1 1 1.6 0.2 0.6 0.4 1.3 0.4 2v1.2c0 1-0.2 1.8-0.5 2.5 -0.3 0.7-0.8 1.2-1.4 1.6 -0.6 0.4-1.3 0.7-2.1 0.9 -0.8 0.2-1.7 0.3-2.6 0.3 -0.4 0-0.7 0-1.1 0 -0.4 0-0.8-0.1-1.2-0.1v2.1c0.2 0.9 0.6 1.7 1.3 2.2 0.7 0.5 1.5 0.8 2.4 0.8 0.1 0 0.4-0.1 0.9-0.2 0.5-0.1 1-0.2 1.6-0.3 0.7-0.1 1.4-0.3 2.2-0.5l0.4 1.9c-0.9 0.2-1.6 0.3-2.3 0.5 -0.6 0.1-1.2 0.2-1.7 0.3s-0.9 0.1-1 0.1c-0.7 0-1.5-0.1-2.1-0.4 -0.7-0.3-1.3-0.6-1.8-1.1 -0.5-0.5-0.9-1.1-1.2-1.7s-0.4-1.4-0.4-2.2V126.5zM146.4 130.9h0.1c0.4 0 0.8-0.1 1.2-0.3 0.4-0.2 0.7-0.4 0.9-0.7 0.3-0.3 0.5-0.6 0.6-1 0.2-0.4 0.2-0.8 0.2-1.2v-1.5c0-0.6-0.1-1-0.3-1.4 -0.2-0.4-0.5-0.7-0.8-0.9 -0.3-0.2-0.7-0.4-1.2-0.5s-0.9-0.2-1.4-0.2c-0.4 0-0.9 0.1-1.3 0.2s-0.8 0.3-1.1 0.6c-0.3 0.3-0.5 0.6-0.7 0.9 -0.2 0.4-0.3 0.8-0.3 1.3v4.6L146.4 130.9z" class="a"/><path d="M175.5 132.2c0 1-0.2 1.9-0.5 2.8 -0.3 0.9-0.8 1.6-1.4 2.3 -0.6 0.6-1.3 1.2-2.1 1.5 -0.8 0.4-1.7 0.6-2.6 0.6 -0.9 0-1.8-0.1-2.7-0.3s-1.6-0.5-2.3-0.8c-0.8-0.3-1.6-0.7-2.3-1.2l0.7-1.9c0.8 0.4 1.6 0.8 2.3 1.1 0.7 0.3 1.4 0.5 2.1 0.7 0.7 0.2 1.4 0.3 2 0.3 0.7 0 1.3-0.1 1.8-0.4 0.6-0.3 1.1-0.6 1.5-1.1 0.4-0.5 0.7-1 1-1.6 0.2-0.6 0.4-1.3 0.4-2 0-0.7-0.2-1.3-0.5-1.8 -0.3-0.5-0.7-0.9-1.2-1.2 -0.5-0.3-1.1-0.6-1.7-0.7s-1.2-0.3-1.8-0.4c-0.9-0.1-1.7-0.4-2.4-0.7 -0.8-0.3-1.4-0.8-2-1.4 -0.6-0.6-1-1.2-1.3-2 -0.3-0.7-0.5-1.6-0.5-2.5 0-1 0.2-1.9 0.5-2.7 0.3-0.9 0.8-1.6 1.4-2.2 0.6-0.6 1.3-1.1 2.1-1.5 0.8-0.4 1.6-0.6 2.5-0.6 0.6 0 1.1 0.1 1.7 0.2 0.6 0.1 1.1 0.3 1.7 0.4 0.6 0.2 1.2 0.4 1.7 0.6l-0.7 2c-0.5-0.2-1-0.4-1.6-0.6 -0.5-0.1-1-0.3-1.5-0.4 -0.5-0.1-1-0.2-1.5-0.2 -0.6 0-1.2 0.1-1.8 0.4 -0.5 0.3-1 0.6-1.4 1.1s-0.7 1-0.9 1.6c-0.2 0.6-0.4 1.2-0.4 1.8 0 0.7 0.1 1.4 0.4 1.9 0.3 0.5 0.7 1 1.1 1.4 0.5 0.4 1 0.7 1.5 0.9 0.6 0.2 1.1 0.4 1.6 0.5 1 0.2 1.8 0.4 2.7 0.7 0.8 0.3 1.6 0.7 2.2 1.2 0.6 0.5 1.1 1.1 1.5 1.8S175.5 131.2 175.5 132.2z" class="a"/><path d="M179.7 134.8v-11.2h-3v-1.7h3v-7h1.9v7h3.2v1.8h-3.2v11.4c0 1 0.2 1.6 0.7 2 0.5 0.4 1.1 0.5 1.7 0.5h0.8v1.9h-0.9c-0.6 0-1.1-0.1-1.6-0.3 -0.5-0.2-0.9-0.4-1.3-0.8 -0.4-0.4-0.7-0.8-0.9-1.4C179.8 136.3 179.7 135.6 179.7 134.8z" class="a"/><path d="M187.7 114.8h1.9v2.7h-1.9V114.8zM187.7 121.8h1.9v17.5h-1.9V121.8z" class="a"/><path d="M194.2 114.8h1.8v20.1c0 1 0.2 1.6 0.7 2s1.1 0.5 1.7 0.5h0.5v1.9h-0.6c-0.6 0-1.1-0.1-1.6-0.3 -0.5-0.2-0.9-0.4-1.3-0.8 -0.4-0.4-0.6-0.8-0.9-1.4 -0.2-0.6-0.3-1.3-0.3-2.1V114.8z" class="a"/><path d="M201.6 114.8h1.8v20.1c0 1 0.2 1.6 0.7 2s1.1 0.5 1.7 0.5h0.5v1.9h-0.6c-0.6 0-1.1-0.1-1.6-0.3 -0.5-0.2-0.9-0.4-1.3-0.8 -0.4-0.4-0.6-0.8-0.9-1.4 -0.2-0.6-0.3-1.3-0.3-2.1V114.8z" class="a"/><path d="M100 158.7h-5.6v22.6h-1.9v-22.6h-5.8v-1.9h13.3V158.7z" class="a"/><path d="M111.6 181.3v-13c0-0.8-0.3-1.6-0.8-2.2 -0.6-0.6-1.2-0.9-2.1-0.9 -0.2 0-0.5 0-0.8 0.1 -0.3 0-0.6 0.1-1 0.2 -0.4 0.1-0.7 0.2-1.1 0.4 -0.4 0.2-0.7 0.4-1.1 0.6v14.8h-1.8v-24.5h1.8v7.6c0.9-0.5 1.7-0.8 2.4-0.9s1.2-0.1 1.6-0.1c0.7 0 1.3 0.1 1.8 0.4 0.6 0.3 1.1 0.6 1.5 1.1 0.4 0.5 0.8 1 1 1.6 0.2 0.6 0.4 1.2 0.4 1.9v12.9H111.6z" class="a"/><path d="M117.8 156.8h1.9v2.7h-1.9V156.8zM117.8 163.8h1.9v17.5h-1.9V163.8z" class="a"/><path d="M134.3 166.4c0.3 0.6 0.4 1.2 0.5 1.8 0 0.6 0.1 1.2 0.1 1.8v11.3h-1.9v-12.4c0-1.2-0.3-2.1-0.9-2.7 -0.6-0.6-1.3-0.9-2.1-0.9 -0.4 0-1 0.1-1.7 0.2 -0.7 0.1-1.5 0.5-2.3 1.1v14.8h-1.8v-15.8l-0.8-0.7 1.3-1.3 1.1 1.1c1.3-0.7 2.5-1.1 3.6-1.1 1.1 0 2 0.2 2.9 0.6C133.2 164.6 133.9 165.3 134.3 166.4z" class="a"/><path d="M145.9 181.3l-3.7-8.4h-1.2v8.4h-1.8v-24.5h1.8v14h1.1l3.7-7h2l-4.3 8.1 4.3 9.4H145.9z" class="a"/><path d="M150.9 156.8h1.9v2.7h-1.9V156.8zM150.9 163.8h1.9v17.5h-1.9V163.8z" class="a"/><path d="M167.5 166.4c0.3 0.6 0.4 1.2 0.5 1.8 0 0.6 0.1 1.2 0.1 1.8v11.3h-1.9v-12.4c0-1.2-0.3-2.1-0.9-2.7 -0.6-0.6-1.3-0.9-2.1-0.9 -0.4 0-1 0.1-1.7 0.2 -0.7 0.1-1.5 0.5-2.3 1.1v14.8h-1.8v-15.8l-0.8-0.7 1.3-1.3 1.1 1.1c1.3-0.7 2.5-1.1 3.6-1.1 1.1 0 2 0.2 2.9 0.6C166.3 164.6 167 165.3 167.5 166.4z" class="a"/><path d="M182.5 185.4c0 0.9-0.1 1.6-0.4 2.2 -0.3 0.6-0.7 1.1-1.2 1.5 -0.5 0.4-1.1 0.7-1.7 0.9 -0.7 0.2-1.4 0.3-2.1 0.3 -0.3 0-0.8-0.1-1.4-0.2 -0.6-0.1-1.1-0.2-1.6-0.4 -0.6-0.2-1.3-0.3-2-0.6l0.5-1.6c0.6 0.2 1.2 0.4 1.9 0.6 0.5 0.1 1 0.3 1.5 0.4 0.5 0.1 0.9 0.2 1.1 0.2 1 0 1.9-0.3 2.6-0.8 0.7-0.5 1.1-1.4 1.1-2.4v-4.7c-0.8 0.4-1.5 0.7-2.1 0.8s-1.1 0.1-1.5 0.1h-0.4c-0.7 0-1.3-0.1-1.8-0.4 -0.6-0.3-1-0.6-1.5-1.1s-0.8-1-1-1.6c-0.2-0.6-0.4-1.2-0.4-1.9v-8.3c0-0.7 0.1-1.3 0.4-1.9 0.2-0.6 0.6-1.1 1-1.6s0.9-0.8 1.5-1.1c0.6-0.3 1.2-0.4 1.8-0.4 0.5 0 1.2 0.1 1.9 0.2s1.5 0.4 2.4 0.8l1.1-1.1 1.3 1.3 -0.8 0.7V185.4zM180.7 166.5c-0.1-0.2-0.3-0.4-0.6-0.5 -0.3-0.1-0.7-0.3-1.2-0.4 -0.4-0.1-0.9-0.2-1.3-0.2s-0.7-0.1-0.9-0.1c-0.4 0-0.8 0.1-1.1 0.2s-0.7 0.4-0.9 0.6c-0.3 0.3-0.5 0.6-0.6 0.9 -0.2 0.4-0.2 0.8-0.2 1.2v8.5c0 0.8 0.3 1.6 0.8 2.2 0.6 0.6 1.2 0.9 2.1 0.9 0.2 0 0.5 0 0.9-0.1 0.4-0.1 0.7-0.1 1.2-0.2 0.4-0.1 0.8-0.2 1.2-0.4 0.4-0.1 0.6-0.3 0.8-0.5V166.5z" class="a"/><path d="M186.7 181.2v-3.1h2.4v3.1H186.7z" class="a"/><path d="M193.1 181.2v-3.1h2.4v3.1H193.1z" class="a"/><path d="M199.4 181.2v-3.1h2.4v3.1H199.4z" class="a"/></svg>
